# xmcd
#
# Track frame offsets: 
#        150
#        12830
#        30572
#        55026
#        74622
#        95407
#        117247
#        134085
#        152511
#        175105
#        196652
#        218486
#        237766
#        244473
#        263308
#        281612
#        300195
#
# Disc length: 4250 seconds
#
# Revision: 0
# Processed by: cddbd v1.5.2PL0 Copyright (c) Steve Scherf et al.
# Submitted via: ExactAudioCopyFreeDBPlugin 1.0
#
DISCID=da109811
DTITLE=Xavier Naidoo - Nicht von dieser Welt 2 - Intrumentals
DYEAR=2016
DGENRE=Blues
TTITLE0=Nicht Von Dieser Welt - Die Rückkehr (Instrumental)
TTITLE1=Renaissance Der Liebe (Instrumental)
TTITLE2=In Meinen Armen (Instrumental)
TTITLE3=Der Fels (Instrumental)
TTITLE4=Das Lass' Ich Nicht Zu (Instrumental)
TTITLE5=Dem Himmel Noch Näher (Instrumental)
TTITLE6=Kopf (Instrumental)
TTITLE7=Frei (Instrumental)
TTITLE8=Wiedersehen (Instrumental)
TTITLE9=Ich Will Leben (Instrumental)
TTITLE10=Das Prinzip (Instrumental)
TTITLE11=Latein (Instrumental)
TTITLE12=Nicht Von Dieser Welt - Epilog (Instrumental)
TTITLE13=Mit Dir (Instrumental)
TTITLE14=Zeichen (Dann Los) (Instrumental)
TTITLE15=Kein Land (Instrumental)
TTITLE16=Noch Immer Mehr Als Gold Wert
EXTD=
EXTT0=
EXTT1=
EXTT2=
EXTT3=
EXTT4=
EXTT5=
EXTT6=
EXTT7=
EXTT8=
EXTT9=
EXTT10=
EXTT11=
EXTT12=
EXTT13=
EXTT14=
EXTT15=
EXTT16=
PLAYORDER=
